<svg width="462.03" height="462.03" xmlns="http://www.w3.org/2000/svg">

 <g>
  <title>Layer 1</title>
  <g id="svg_1" fill="#fff">
   <path fill="#000000" id="svg_2" d="m462,234.84l-76.17,3.43l13.43,21l-127,81.18l-126,-52.93l-146.26,60.97l10.14,24.34l136.1,-56.71l128.57,54l138.69,-88.61l13.43,21l35.07,-67.67z"/>
   <path fill="#000000" id="svg_3" d="m54.1,312.78l92.18,-38.41l4.49,1.89l0,-54.58l-96.67,0l0,91.1zm210.9,-223.57l0,235.05l7.26,3l89.43,-57.05l0,-181l-96.69,0zm-105.44,190.79l96.67,40.62l0,-165.19l-96.67,0l0,124.57z"/>
  </g>
 </g>
</svg>